<svg width="739" height="468" viewBox="0 0 739 468" fill="none" xmlns="http://www.w3.org/2000/svg">
<g clip-path="url(#clip0)">
<path d="M611.867 467.333L613.867 467.294C613.094 445.056 610.721 422.903 606.768 401.006C598.119 354.126 583.738 323.337 564.025 309.495L562.876 311.131C608.928 343.465 611.844 466.097 611.867 467.333Z" fill="#2F2E41"/>
<path d="M586.867 466.854L588.867 466.815C588.824 464.6 587.574 412.401 567.025 397.973L565.876 399.61C585.597 413.456 586.858 466.322 586.867 466.854Z" fill="#2F2E41"/>
<path d="M551.498 311.313C557.021 311.313 561.498 306.836 561.498 301.313C561.498 295.79 557.021 291.313 551.498 291.313C545.975 291.313 541.498 295.79 541.498 301.313C541.498 306.836 545.975 311.313 551.498 311.313Z" fill="#FC2B2B"/>
<path d="M556.45 397.313C561.973 397.313 566.45 392.836 566.45 387.313C566.45 381.79 561.973 377.313 556.45 377.313C550.928 377.313 546.45 381.79 546.45 387.313C546.45 392.836 550.928 397.313 556.45 397.313Z" fill="#FC2B2B"/>
<path d="M591.529 317.308C589.649 329.312 594.548 340.048 594.548 340.048C594.548 340.048 602.493 331.322 604.372 319.318C606.252 307.314 601.353 296.578 601.353 296.578C601.353 296.578 593.408 305.304 591.529 317.308Z" fill="#2F2E41"/>
<path d="M558.841 346.461C570.334 350.404 581.76 347.451 581.76 347.451C581.76 347.451 574.552 338.107 563.059 334.165C551.566 330.223 540.141 333.175 540.141 333.175C540.141 333.175 547.348 342.519 558.841 346.461Z" fill="#2F2E41"/>
<path d="M558.472 422.623C563.674 424.256 569.213 424.496 574.536 423.316C571.156 419.013 566.604 415.779 561.429 414.004C556.253 412.228 550.674 411.987 545.364 413.31C548.843 417.508 553.363 420.72 558.472 422.623Z" fill="#2F2E41"/>
<path d="M325.096 155.197L260.624 121.672C260.624 121.672 238.973 97.8283 225.376 87.0587C211.779 76.2891 207.593 84.2008 207.593 84.2008L201.878 93.7272L215.691 112.939L253.003 144.535L319.672 170.648C320.715 172.356 322.221 173.732 324.015 174.618C325.809 175.503 327.817 175.862 329.806 175.651C331.796 175.441 333.685 174.671 335.254 173.429C336.823 172.188 338.007 170.527 338.67 168.64C339.333 166.752 339.446 164.715 338.997 162.766C338.548 160.816 337.555 159.034 336.134 157.626C334.713 156.219 332.921 155.243 330.967 154.813C329.013 154.383 326.978 154.516 325.096 155.197Z" fill="#FFB8B8"/>
<path d="M157.397 126.202L153.58 102.85L142.802 100.155C142.802 100.155 134.248 97.5203 132.249 114.75C130.249 131.98 131.799 164.149 131.799 164.149L109.917 233.445C108.096 234.291 106.554 235.638 105.469 237.327C104.385 239.016 103.802 240.979 103.79 242.986C103.777 244.994 104.335 246.963 105.399 248.666C106.463 250.369 107.988 251.734 109.798 252.603C111.607 253.472 113.627 253.81 115.621 253.576C117.614 253.342 119.501 252.546 121.06 251.281C122.619 250.017 123.787 248.335 124.427 246.433C125.068 244.53 125.155 242.485 124.678 240.535L153.356 174.927L157.397 126.202Z" fill="#FFB8B8"/>
<path d="M246.545 453.915L260.648 453.914L267.358 399.515L246.542 399.516L246.545 453.915Z" fill="#FFB8B8"/>
<path d="M242.947 451.31L270.722 451.309H270.723C275.418 451.309 279.92 453.174 283.239 456.494C286.559 459.813 288.424 464.315 288.424 469.009V469.585L242.948 469.586L242.947 451.31Z" fill="#2F2E41"/>
<path d="M92.716 453.915L106.82 453.914L113.529 399.515L92.714 399.516L92.716 453.915Z" fill="#FFB8B8"/>
<path d="M89.1188 449.31L116.894 449.309H116.895C121.589 449.309 126.091 451.174 129.411 454.494C132.73 457.813 134.595 462.315 134.595 467.009V467.585L89.1196 467.586L89.1188 449.31Z" fill="#2F2E41"/>
<path d="M162.343 80.5537L138.95 100.523L158.148 161.276L162.48 174.842C162.48 174.842 136.03 199.229 119.664 267.354C103.298 335.479 76.5258 426.001 76.5258 426.001L133.038 442.178L179.014 288.072L233.093 408.972L239.337 444.732L287.463 430.542L276.11 340.859L219.349 185.618L225.246 144.467C225.246 144.467 234.1 123.926 218.718 102.18L213.893 81.7459L196.61 77.4889L162.343 80.5537Z" fill="#2F2E41"/>
<path d="M201.205 68.6977H137.96C136.659 68.6962 135.412 68.1787 134.492 67.2588C133.572 66.3389 133.054 65.0916 133.053 63.7906V36.5297C133.053 26.8414 136.902 17.5499 143.752 10.6992C150.603 3.8486 159.894 -6.10352e-05 169.583 -6.10352e-05C179.271 -6.10352e-05 188.562 3.8486 195.413 10.6992C202.264 17.5499 206.112 26.8414 206.112 36.5297V63.7906C206.111 65.0916 205.593 66.3389 204.674 67.2588C203.754 68.1787 202.506 68.6962 201.205 68.6977Z" fill="#FC2B2B"/>
<path d="M200.589 54.1271C207.684 41.1483 202.914 24.8753 189.936 17.7805C176.957 10.6856 160.684 15.4555 153.589 28.4343C146.494 41.4131 151.264 57.6861 164.243 64.781C177.222 71.8758 193.495 67.1059 200.589 54.1271Z" fill="#FFB8B8"/>
<path d="M214.754 39.2558H176.081L175.685 33.7035L173.702 39.2558H167.747L166.961 28.2513L163.031 39.2558H151.509V38.7106C151.518 31.0494 154.565 23.7045 159.982 18.2872C165.399 12.8699 172.744 9.82263 180.405 9.81396H185.858C193.519 9.82261 200.864 12.8698 206.281 18.2871C211.699 23.7044 214.746 31.0494 214.754 38.7106V39.2558Z" fill="#FC2B2B"/>
<path d="M175.765 73.7865C175.474 73.7862 175.183 73.7605 174.896 73.7098L146.578 68.7134V21.9118H177.751L176.979 22.8116C166.242 35.3346 174.331 55.6409 180.109 66.6305C180.535 67.4353 180.725 68.3441 180.657 69.2522C180.589 70.1603 180.266 71.0307 179.725 71.7632C179.272 72.3896 178.677 72.8996 177.988 73.2513C177.3 73.603 176.538 73.7864 175.765 73.7865Z" fill="#FC2B2B"/>
<path d="M409.954 319.146L161.773 406.892C155.637 409.054 148.893 408.694 143.023 405.89C137.152 403.086 132.633 398.068 130.457 391.937L87.8235 271.352C85.6617 265.215 86.0223 258.472 88.8261 252.601C91.6299 246.731 96.6479 242.212 102.779 240.036L350.96 152.289C357.097 150.128 363.84 150.488 369.71 153.292C375.581 156.096 380.1 161.114 382.276 167.245L424.91 287.83C427.071 293.967 426.711 300.71 423.907 306.581C421.103 312.451 416.085 316.97 409.954 319.146Z" fill="white"/>
<path d="M424.91 287.83L425.135 288.468C427.206 294.329 426.864 300.771 424.185 306.379C421.505 311.987 416.708 316.301 410.848 318.372L161.426 406.558C155.567 408.628 149.125 408.287 143.518 405.609C137.911 402.931 133.596 398.136 131.524 392.277L131.299 391.639L424.91 287.83Z" fill="#F2F2F2"/>
<path d="M146.285 268.034C129.834 278.858 108.751 270.712 101.377 258.846L102.552 258.178C116.557 249.448 137.356 254.312 146.285 268.034Z" fill="#FC2B2B"/>
<path d="M352.436 298.745C348.409 300.168 344.784 300.103 341.659 298.551C334.596 295.041 331.282 284.636 328.619 276.275C327.844 273.843 327.112 271.546 326.367 269.668L326.356 269.639C325.06 265.914 325.286 261.828 326.984 258.268C328.683 254.708 331.718 251.963 335.43 250.628L368.812 238.825C372.834 237.403 376.455 237.468 379.578 239.018C386.638 242.523 389.955 252.924 392.621 261.282C393.398 263.719 394.132 266.021 394.88 267.902C396.184 271.631 395.962 275.724 394.264 279.29C392.565 282.856 389.527 285.607 385.81 286.945L352.436 298.745ZM327.755 269.134C328.517 271.056 329.255 273.372 330.036 275.824C332.614 283.917 335.822 293.99 342.32 297.219C345.11 298.604 348.256 298.645 351.94 297.343L385.312 285.544C388.655 284.342 391.389 281.869 392.919 278.664C394.45 275.458 394.654 271.778 393.487 268.423C392.731 266.523 391.989 264.196 391.204 261.734C388.624 253.643 385.413 243.574 378.916 240.35C376.13 238.967 372.986 238.927 369.308 240.227L335.928 252.029C332.589 253.231 329.858 255.7 328.328 258.902C326.798 262.104 326.592 265.781 327.755 269.134Z" fill="#3F3D56"/>
<path d="M139.366 271.931C133.5 273.965 127.181 274.313 121.127 272.934C112.287 270.993 104.263 265.714 100.189 259.159L99.7805 258.502L101.615 257.459C115.831 248.605 137.148 253.405 146.349 267.542L146.753 268.162L146.135 268.568C144.023 269.959 141.75 271.089 139.366 271.931ZM101.873 259.024C105.86 264.949 113.28 269.688 121.446 271.481C129.384 273.335 137.734 271.988 144.686 267.731C135.685 254.712 115.744 250.393 102.39 258.73L101.873 259.024Z" fill="#FC2B2B"/>
<path d="M148.085 358.48C146.001 359.305 143.732 359.547 141.521 359.179C139.309 358.812 137.24 357.85 135.534 356.396C133.538 354.651 132.025 352.421 131.14 349.922C130.255 347.422 130.029 344.737 130.484 342.125C130.906 339.877 131.942 337.79 133.477 336.095C135.013 334.4 136.987 333.164 139.183 332.522L183.661 316.796C185.772 315.921 188.084 315.646 190.341 316.001C192.598 316.356 194.714 317.328 196.454 318.809C198.449 320.554 199.961 322.784 200.845 325.284C201.728 327.783 201.953 330.468 201.498 333.08C200.62 337.67 197.521 341.051 192.797 342.669L148.318 358.396C148.24 358.424 148.162 358.452 148.085 358.48ZM139.459 334C137.561 334.586 135.859 335.677 134.535 337.158C133.211 338.639 132.315 340.452 131.945 342.404C131.535 344.757 131.739 347.176 132.536 349.428C133.333 351.68 134.696 353.688 136.495 355.26C138.037 356.566 139.91 357.42 141.908 357.727C143.905 358.034 145.949 357.781 147.811 356.997L192.312 341.264C194.255 340.703 196.006 339.616 197.369 338.122C198.732 336.628 199.656 334.786 200.037 332.8C200.447 330.447 200.245 328.028 199.449 325.777C198.653 323.525 197.29 321.516 195.493 319.944C193.948 318.638 192.074 317.784 190.076 317.476C188.078 317.167 186.033 317.416 184.167 318.195L139.664 333.929C139.595 333.952 139.527 333.976 139.459 334L139.459 334Z" fill="#3F3D56"/>
<path d="M352.733 263.266L338.712 268.223C337.782 268.552 336.76 268.498 335.87 268.073C334.98 267.648 334.296 266.887 333.967 265.957C333.638 265.028 333.692 264.005 334.117 263.116C334.542 262.226 335.303 261.541 336.233 261.212L350.254 256.255C351.184 255.926 352.206 255.98 353.096 256.405C353.986 256.83 354.67 257.591 354.999 258.521C355.328 259.451 355.274 260.473 354.849 261.363C354.424 262.253 353.663 262.937 352.733 263.266Z" fill="#FC2B2B"/>
<path d="M356.699 274.483L342.677 279.44C341.748 279.769 340.726 279.715 339.836 279.29C338.946 278.865 338.261 278.104 337.933 277.174C337.604 276.245 337.658 275.222 338.083 274.333C338.508 273.443 339.269 272.758 340.199 272.43L354.22 267.472C355.15 267.143 356.172 267.198 357.062 267.623C357.952 268.047 358.636 268.809 358.965 269.738C359.294 270.668 359.24 271.69 358.815 272.58C358.39 273.47 357.629 274.154 356.699 274.483Z" fill="#FC2B2B"/>
<path d="M360.665 285.7L346.643 290.658C346.183 290.82 345.695 290.891 345.208 290.865C344.72 290.839 344.242 290.718 343.802 290.507C343.361 290.297 342.966 290.002 342.64 289.639C342.313 289.276 342.061 288.852 341.899 288.392C341.736 287.931 341.665 287.443 341.691 286.956C341.717 286.468 341.839 285.991 342.049 285.55C342.259 285.109 342.555 284.715 342.918 284.388C343.281 284.061 343.704 283.81 344.165 283.647L358.186 278.689C358.647 278.527 359.134 278.456 359.622 278.482C360.11 278.508 360.587 278.629 361.028 278.84C361.469 279.05 361.863 279.345 362.19 279.708C362.516 280.071 362.768 280.495 362.931 280.955C363.094 281.416 363.164 281.904 363.138 282.391C363.113 282.879 362.991 283.357 362.781 283.797C362.57 284.238 362.275 284.633 361.912 284.959C361.549 285.286 361.125 285.537 360.665 285.7Z" fill="#FC2B2B"/>
<path d="M377.271 254.59L363.249 259.548C362.789 259.71 362.301 259.781 361.813 259.755C361.326 259.729 360.848 259.608 360.408 259.397C359.967 259.187 359.572 258.892 359.246 258.529C358.919 258.166 358.667 257.742 358.504 257.282C358.342 256.821 358.271 256.333 358.297 255.846C358.323 255.358 358.444 254.88 358.655 254.44C358.865 253.999 359.16 253.605 359.523 253.278C359.886 252.951 360.31 252.7 360.77 252.537L374.792 247.579C375.722 247.251 376.744 247.305 377.634 247.73C378.523 248.155 379.208 248.916 379.537 249.845C379.865 250.775 379.811 251.797 379.386 252.687C378.961 253.577 378.2 254.261 377.271 254.59Z" fill="#FC2B2B"/>
<path d="M381.237 265.807L367.215 270.765C366.755 270.928 366.267 270.998 365.779 270.972C365.292 270.947 364.814 270.825 364.374 270.615C363.933 270.404 363.538 270.109 363.212 269.746C362.885 269.383 362.633 268.959 362.47 268.499C362.308 268.039 362.237 267.551 362.263 267.063C362.289 266.575 362.41 266.098 362.621 265.657C362.831 265.217 363.126 264.822 363.489 264.495C363.852 264.169 364.276 263.917 364.736 263.754L378.758 258.797C379.218 258.634 379.706 258.563 380.194 258.589C380.681 258.615 381.159 258.737 381.6 258.947C382.04 259.157 382.435 259.453 382.762 259.816C383.088 260.179 383.34 260.602 383.503 261.063C383.666 261.523 383.736 262.011 383.71 262.498C383.684 262.986 383.563 263.464 383.352 263.904C383.142 264.345 382.847 264.74 382.484 265.066C382.121 265.393 381.697 265.645 381.237 265.807Z" fill="#FC2B2B"/>
<path d="M385.203 277.025L371.181 281.982C370.251 282.311 369.229 282.257 368.339 281.832C367.45 281.407 366.765 280.646 366.436 279.716C366.108 278.786 366.162 277.764 366.587 276.874C367.012 275.985 367.773 275.3 368.702 274.971L382.724 270.014C383.184 269.851 383.672 269.781 384.16 269.806C384.647 269.832 385.125 269.954 385.566 270.164C386.006 270.375 386.401 270.67 386.728 271.033C387.054 271.396 387.306 271.82 387.469 272.28C387.631 272.74 387.702 273.228 387.676 273.716C387.65 274.203 387.529 274.681 387.318 275.122C387.108 275.562 386.813 275.957 386.45 276.284C386.087 276.61 385.663 276.862 385.203 277.025Z" fill="#FC2B2B"/>
<path d="M391.559 193.494L97.9472 297.304L98.4429 298.706L392.054 194.897L391.559 193.494Z" fill="#3F3D56"/>
<path d="M409.954 319.146L161.773 406.892C155.637 409.054 148.893 408.694 143.023 405.89C137.152 403.086 132.633 398.068 130.457 391.937L87.8235 271.352C85.6617 265.215 86.0223 258.472 88.8261 252.601C91.6299 246.731 96.6479 242.212 102.779 240.036L350.96 152.289C357.097 150.128 363.84 150.488 369.71 153.292C375.581 156.096 380.1 161.114 382.276 167.245L424.91 287.83C427.071 293.967 426.711 300.71 423.907 306.581C421.103 312.451 416.085 316.97 409.954 319.146ZM103.275 241.438C97.5152 243.482 92.8014 247.727 90.1675 253.242C87.5337 258.757 87.1949 265.091 89.2256 270.856L131.86 391.441C133.903 397.201 138.148 401.914 143.663 404.548C149.178 407.182 155.513 407.521 161.277 405.49L409.458 317.744C415.218 315.7 419.932 311.455 422.566 305.94C425.199 300.425 425.538 294.09 423.507 288.326L380.873 167.741C378.83 161.981 374.585 157.267 369.07 154.634C363.555 152 357.22 151.661 351.456 153.692L103.275 241.438Z" fill="#3F3D56"/>
<path d="M738 468H1C0.734784 468 0.480429 467.895 0.292892 467.707C0.105356 467.52 0 467.265 0 467C0 466.735 0.105356 466.48 0.292892 466.293C0.480429 466.105 0.734784 466 1 466H738C738.265 466 738.52 466.105 738.707 466.293C738.895 466.48 739 466.735 739 467C739 467.265 738.895 467.52 738.707 467.707C738.52 467.895 738.265 468 738 468Z" fill="#CBCBCB"/>
</g>
<defs>
<clipPath id="clip0">
<rect width="739" height="468" fill="white"/>
</clipPath>
</defs>
</svg>
